<?xml version="1.0" standalone="no"?><!DOCTYPE svg PUBLIC "-//W3C//DTD SVG 1.1//EN" "http://www.w3.org/Graphics/SVG/1.1/DTD/svg11.dtd"><svg class="icon" width="200px" height="200.00px" viewBox="0 0 1024 1024" version="1.1" xmlns="http://www.w3.org/2000/svg"><path d="M949.794133 835.515733c0 31.402667-2.013867 63.010133 0.648534 94.173867 2.116267 24.712533-4.881067 29.525333-29.2864 29.422933-265.864533-1.092267-531.729067-0.682667-797.559467-0.682666 0-266.3424 0.4096-532.650667-0.682667-798.993067-0.1024-24.439467 4.744533-31.1296 29.354667-29.354667 36.625067 2.628267 73.591467 0.682667 110.3872 0.682667 2.56 4.778667 1.877333 8.977067-2.048 12.6976-9.386667 8.157867-21.2992 11.605333-32.221867 16.861867-49.902933 24.064-75.639467 63.522133-76.3904 119.261866-1.262933 96.187733-0.785067 192.375467-0.546133 288.597334 0.170667 36.864-0.682667 73.693867 0.648533 110.523733 1.160533 40.8576-1.706667 81.681067-0.750933 122.4704 0.3072 12.629333-1.262933 25.429333 3.003733 37.717333 8.0896 30.8224 25.3952 55.227733 51.4048 73.489067 30.071467 22.3232 64.785067 19.524267 99.191467 18.363733 4.437333-0.136533 8.840533-0.1024 13.277867-0.068266 23.2448-0.989867 46.455467 0 69.666133-0.2048 39.150933-2.6624 78.267733 1.160533 117.384533-0.341334 7.406933-1.024 14.813867-0.989867 22.2208-0.068266 56.490667 0.068267 113.015467-1.604267 169.472-0.238934 33.757867 1.9456 67.652267-0.6144 101.410134 1.1264 53.009067 2.730667 90.385067-21.265067 118.5792-64.170666 8.2944-12.629333 11.4688-31.914667 32.836266-31.266134z" fill="#FEFAFA" /><path d="M949.794133 835.515733c-13.7216 6.929067-13.312 22.3232-19.8656 33.518934-27.136 46.2848-65.501867 74.615467-120.7296 74.9568-34.952533 0.2048-69.9392-1.024-104.891733-1.604267-17.1008-63.2832 35.396267-84.411733 70.144-116.3264 2.56-0.853333 5.154133-1.706667 7.816533-1.8432 65.774933-3.447467 65.809067-3.447467 66.594134-69.666133 22.1184-26.897067 52.155733-45.909333 73.4208-73.762134 7.441067-4.846933 14.199467-20.7872 23.2448-1.570133 2.525867 49.3568-5.0176 98.986667 4.266666 148.138667v8.157866z" fill="#FD5656" /><path d="M818.8928 130.7648c2.696533 0 5.358933-0.034133 8.055467 0 40.96 0.648533 95.675733-14.097067 118.6816 6.587733 20.002133 18.0224 4.164267 76.014933 4.164266 116.3264-3.140267 2.7648-6.485333 3.072-10.0352 0.887467-6.485333-7.202133-8.9088-16.520533-13.038933-24.9856-12.117333-30.856533-35.293867-51.438933-62.8736-67.925333-13.346133-10.888533-31.6416-10.9568-45.533867-20.753067-2.286933-3.4816-2.082133-6.8608 0.580267-10.1376z" fill="#FEFCFC" /><path d="M942.557867 252.928c2.423467 0.068267 4.846933 0.341333 7.236266 0.785067v573.6448c-18.7392-32.768-4.642133-68.3008-8.3968-102.331734-1.911467-17.442133-1.058133-35.157333-1.4336-52.770133-18.432-29.730133-7.338667-62.976-10.683733-94.481067-3.7888-36.0448 1.297067-72.465067 0.682667-108.714666 1.058133-45.806933-3.003733-91.613867 0.068266-137.4208 0.443733-22.357333-2.935467-44.9536 3.4816-67.003734 1.809067-4.8128 4.846933-8.704 9.045334-11.707733z" fill="#FEA1A6" /><path d="M818.8928 130.7648c0.443733 2.1504 0.7168 4.334933 0.8192 6.5536-13.755733 16.315733-32.699733 13.5168-50.7904 13.824-46.114133-2.321067-92.228267 0.750933-138.376533 0.238933-44.100267-2.696533-88.1664 0.512-132.266667-0.1024-62.464-1.501867-124.928-0.7168-187.426133-0.4096-17.6128 0.1024-35.669333 2.321067-48.981334-13.312 0.238933-2.286933 0.477867-4.539733 0.750934-6.826666 185.4464 0.034133 370.858667 0.034133 556.270933 0.034133z" fill="#FEB4C9" /><path d="M780.731733 833.774933c-30.344533 15.9744-47.377067 46.011733-71.7824 68.266667-12.868267 11.741867 16.554667 29.115733-4.676266 40.3456H524.288c19.182933-31.9488 53.521067-50.0736 73.3184-82.0224 9.3184-15.0528 19.968-28.706133 22.801067-46.6944 35.9424-22.9376 74.1376-41.233067 114.449066-55.159467 18.773333 3.072 11.810133 31.232 32.085334 32.938667 14.301867 10.9568 15.291733 26.248533 13.789866 42.325333z" fill="#FD5459" /><path d="M261.905067 137.591467c79.1552 0.887467 158.344533 1.7408 237.499733 2.628266-1.399467 16.4864-15.0528 14.984533-25.8048 17.783467-26.658133 1.1264-53.384533 0.989867-80.042667 0.6144-45.021867-5.290667-80.6912 6.621867-108.032 46.865067-23.415467 34.474667-57.207467 60.859733-85.1968 92.091733-28.194133 31.5392-39.662933 66.321067-40.2432 106.8032 0.682667 37.341867-0.6144 74.581333 0.136534 111.889067-2.696533 18.1248 6.178133 41.233067-20.821334 48.981333-0.477867-97.655467-2.833067-195.310933-0.785066-292.932267 1.536-71.441067 48.3328-119.5008 123.2896-134.724266z" fill="#FD4784" /><path d="M197.358933 916.718933c-26.9312-16.554667-44.817067-39.5264-50.0736-71.3728 5.905067-39.799467 100.317867-149.060267 138.922667-160.768 17.749333 13.1072 34.304 27.136 36.1472 51.473067-36.181333 34.5088-68.027733 73.079467-101.546667 110.114133-14.506667 16.042667-24.2688 32.4608-17.3056 54.784 0.068267 6.075733-1.467733 11.537067-6.144 15.7696z" fill="#FD4D6F" /><path d="M311.7056 942.421333c-2.6624 0-5.358933 0.034133-8.021333 0.034134-2.935467-3.037867-6.485333-4.369067-10.717867-4.608-50.005333-3.003733-54.852267-11.605333-26.453333-52.4288 28.125867-40.379733 63.8976-73.659733 102.468266-103.936 22.050133-1.501867 43.383467-0.955733 55.944534 22.016 5.461333 19.456-3.515733 34.2016-15.530667 47.991466-29.3888 33.757867-59.221333 67.003733-97.6896 90.9312z" fill="#FD4F67" /><path d="M286.5152 688.0256c-53.486933 46.1824-100.078933 98.440533-139.264 157.320533-8.772267-10.069333-8.6016-22.152533-7.611733-34.372266 11.0592-9.386667 9.216-22.459733 8.260266-34.304-5.0176-61.917867 36.5568-96.4608 76.3904-131.9936 18.397867-16.418133 32.4608 1.3312 48.0256 7.031466 10.990933 9.659733 21.060267 19.694933 14.199467 36.317867z" fill="#FD4B72" /><path d="M376.285867 783.325867c-31.744 36.829867-72.874667 64.750933-100.010667 106.052266-24.644267 37.5808-24.917333 37.2736 17.92 45.841067 3.515733 0.7168 6.3488 4.744533 9.489067 7.236267-38.536533 4.164267-75.741867 2.901333-106.325334-25.770667-0.034133-5.188267-0.1024-10.410667-0.136533-15.598933 34.850133-38.024533 72.533333-73.4208 104.686933-114.039467 11.946667-15.086933 27.886933-25.941333 47.9232-28.672 16.622933-0.068267 21.230933 12.8 26.453334 24.951467z" fill="#FD4F6A" /><path d="M269.243733 655.291733c-14.677333 18.363733-23.8592-25.463467-42.666666-2.116266-28.501333 35.362133-70.3488 60.859733-70.8608 114.176-0.136533 15.223467 11.093333 37.341867-16.0768 43.588266-0.1024-43.656533-0.170667-87.278933-0.273067-130.935466 10.9568-9.386667-2.082133-26.487467 11.229867-35.1232 24.746667-10.001067 36.898133-34.304 56.695466-49.9712 13.7216-10.888533 26.794667-25.429333 43.861334-4.7104 5.9392 21.742933 24.302933 40.004267 18.090666 65.092266z" fill="#FD4B76" /><path d="M621.8752 818.3808c13.824 9.898667 4.608 21.162667-1.297067 28.023467-29.627733 34.372267-51.9168 76.3904-96.256 95.9488l-16.145066 0.1024c-57.6512-10.9568-57.685333-10.9568-19.012267-61.371734 10.717867-13.960533 20.2752-28.910933 33.655467-40.6528 20.0704-11.3664 42.7008-4.881067 63.7952-9.250133 10.205867-3.515733 19.319467-9.8304 29.866666-12.629333 1.809067-0.068267 3.584-0.1024 5.393067-0.170667z" fill="#FD525E" /><path d="M156.296533 647.031467c-13.243733 7.0656-3.072 26.180267-16.896 32.9728 0-38.263467 0.034133-76.4928 0.034134-114.756267 15.598933-14.199467 5.9392-32.8704 8.669866-49.322667 18.6368-47.9232 56.456533-81.1008 90.350934-117.179733 10.990933-11.707733 21.6064-8.055467 29.354666 5.2224 2.628267 32.9728-9.762133 62.907733-18.773333 93.525333-4.232533 4.334933-9.728 5.632-15.36 6.519467-5.188267 1.7408-10.103467 4.1984-14.5408 7.509333-34.167467 28.7744-59.392 61.576533-53.213867 110.114134 1.160533 9.284267-1.7408 18.7392-9.6256 25.3952z" fill="#FD497C" /><path d="M524.424533 843.741867c-0.546133 21.0944-18.909867 31.744-28.945066 46.8992-24.4736 36.9664-25.9072 36.010667 12.6976 51.848533-40.925867 0-81.8176 0-122.743467-0.034133-6.280533-6.621867-30.9248-8.874667-9.3184-23.108267 40.209067-26.4192 63.0784-66.8672 90.658133-103.697067 10.615467-5.4272 21.0944-5.802667 31.266134 1.024 5.188267 4.5056 2.594133 11.6736 5.7344 16.827734 7.236267 2.833067 15.598933 3.242667 20.650666 10.24z" fill="#FD5261" /><path d="M467.1488 818.961067c-13.038933 46.318933-42.871467 80.861867-82.500267 104.686933-19.933867 11.9808 3.1744 12.834133 0.8192 18.773333h-73.728c19.319467-31.197867 50.8928-50.8928 73.8304-78.6432 15.0528-18.193067 37.239467-32.904533 32.699734-61.6448 19.899733-5.0176 37.512533-3.1744 48.878933 16.827734z" fill="#FD5164" /><path d="M939.861333 466.807467l0.1024 205.4144c-4.9152 5.256533-9.8304 10.513067-14.711466 15.803733-18.6368-20.3776-4.744533-46.7968-14.404267-74.24-21.435733 22.4256-41.335467 43.758933-66.935467 57.7536-13.1072 7.168-25.873067 17.339733-37.444266-1.9456 0.750933-40.106667 15.940267-76.0832 31.5392-111.957333 36.932267-23.074133 71.611733-48.5376 91.716266-89.088 2.935467-3.106133 6.3488-3.549867 10.1376-1.7408z" fill="#FD555B" /><path d="M807.082667 670.4128c30.993067 5.5296 47.377067-18.466133 67.310933-34.338133 15.633067-12.424533 29.525333-27.0336 45.7728-42.120534 10.478933 30.481067 2.696533 62.702933 5.085867 94.037334-20.206933 27.682133-41.335467 54.3744-75.434667 66.184533-7.850667 1.979733-13.243733-2.048-18.158933-7.304533-3.106133-3.959467-5.9392-8.192-9.147734-12.0832-13.243733-7.7824-32.0512-5.666133-40.209066-22.562134-2.6624-20.445867 5.870933-34.2016 24.7808-41.813333z" fill="#FD5459" /><path d="M834.56 741.853867c5.085867 4.096 10.171733 8.226133 15.2576 12.322133 25.770667 60.450133 7.7824 81.2032-69.085867 79.5648-5.9392-13.277867-11.844267-26.555733-17.783466-39.8336-13.994667-36.488533 10.24-50.210133 37.034666-62.395733 13.585067-3.549867 25.361067-0.887467 34.577067 10.3424z" fill="#FDF6F7" /><path d="M769.536 140.219733c16.725333-0.955733 33.450667-1.911467 50.176-2.901333 17.408 2.286933 35.089067 3.822933 48.776533 16.930133 5.495467 19.933867-10.717867 28.945067-21.333333 39.594667-34.030933 34.167467-64.034133 71.543467-92.535467 110.318933-37.1712-5.4272-63.7952-27.511467-86.6304-55.466666 18.397867-37.6832 53.896533-61.303467 77.687467-94.583467 6.7584-6.690133 15.9744-9.147733 23.8592-13.892267z" fill="#FD4D6F" /><path d="M942.557867 252.928c-0.887467 3.003733-1.774933 6.007467-2.628267 9.045333-28.603733 36.010667-65.774933 64.238933-92.398933 102.126934-12.9024 18.363733-30.856533 11.127467-47.8208 8.669866-15.633067-7.406933-23.552-20.138667-25.668267-36.9664 1.979733-21.6064 14.609067-37.205333 29.149867-51.746133 23.8592-23.825067 47.240533-47.991467 67.857066-74.9568 23.893333-31.232 30.071467-30.1056 51.575467 3.413333 3.618133 5.666133 6.4512 11.8784 11.605333 16.418134 8.2944 6.075733 6.792533 15.5648 8.328534 23.995733z" fill="#FD4F67" /><path d="M934.2976 228.898133c-37.410133-35.328-37.0688-35.054933-71.714133 8.738134-26.5216 33.553067-66.389333 55.842133-82.807467 97.9968-16.2816-2.8672-25.361067-12.6976-27.784533-28.910934 3.447467-42.222933 41.096533-61.713067 62.020266-92.2624 15.223467-22.186667 40.413867-36.317867 54.510934-60.177066 31.744 16.145067 57.344 37.7856 65.774933 74.615466z" fill="#FD4E6A" /><path d="M939.861333 466.807467c-2.1504-0.034133-4.3008-0.034133-6.4512-0.034134-10.103467-6.382933-6.109867-19.080533-11.9808-28.194133-16.520533 18.909867-36.010667 34.133333-49.288533 54.784-13.4144 20.8896-24.507733 17.3056-35.5328-1.672533-9.079467-20.2752-17.646933-40.686933-13.6192-63.761067 31.778133-30.549333 60.2112-64.3072 90.282667-96.494933 6.929067-7.441067 14.301867-24.712533 26.624-4.369067 0 46.592-0.034133 93.149867-0.034134 139.741867z" fill="#FD5261" /><path d="M939.895467 327.0656c-23.074133 4.983467-33.143467 25.224533-46.865067 40.823467-19.421867 22.084267-34.7136 48.5376-65.297067 57.890133-22.459733-12.526933-33.314133-30.583467-26.999466-56.832 25.156267 2.6624 39.287467-9.3184 55.057066-29.457067 23.278933-29.7984 46.865067-61.883733 84.138667-77.550933-0.034133 21.7088-0.034133 43.4176-0.034133 65.1264z" fill="#FD5164" /><path d="M475.3408 147.182933c8.6016-0.341333 17.8176 1.536 24.064-6.9632 43.656533 0 87.313067-0.034133 130.9696-0.034133 0.853333 16.349867-12.458667 16.6912-22.8352 20.411733-33.0752 5.802667-71.441067-0.580267-89.565867 39.253334-2.525867 3.7888-5.597867 7.338667-7.168 11.639466 1.365333 6.109867 9.9328 9.898667 5.632 17.7152-32.597333 15.121067-67.618133 21.367467-102.2976 28.842667-20.650667-4.642133-28.637867-15.7696-14.779733-34.338133 21.6064-29.047467 41.233067-60.416 75.9808-76.526934z" fill="#FD497B" /><path d="M606.208 155.3408c8.055467-5.051733 16.110933-10.1376 24.1664-15.189333 46.3872 0.034133 92.808533 0.034133 139.195733 0.068266-5.358933 5.051733-10.717867 10.103467-16.110933 15.121067-59.8016 3.140267-103.287467 34.952533-139.400533 79.735467-13.073067 3.925333-25.941333 4.744533-38.0928-2.8672-5.495467-4.949333-4.3008-11.093333-3.072-17.2032-3.072-4.983467-9.181867-7.953067-9.8304-14.609067 11.195733-18.056533 24.9856-33.6896 43.144533-45.056z" fill="#FD4B76" /><path d="M570.436267 222.856533l42.5984 9.3184c21.981867-6.0416 41.984-3.720533 58.2656 14.0288l80.657066 60.484267c9.250133 9.659733 18.500267 19.285333 27.784534 28.910933 2.730667 13.824 12.663467 23.074133 20.992 33.348267 9.0112 18.944 17.988267 37.888 26.999466 56.832 5.188267 21.845333 10.376533 43.690667 15.598934 65.536 8.567467 21.845333 18.466133 43.7248 0.034133 65.604267-8.3968 39.0144-19.319467 77.243733-36.283733 113.527466-3.8912 15.701333-22.698667 23.6544-21.7088 41.8816-8.942933 23.620267-22.903467 41.7792-49.800534 45.806934-33.211733 28.945067-74.9568 41.813333-113.698133 60.3136l0.443733-0.1024c-14.267733 7.4752-29.764267 11.605333-45.021866 16.4864-25.1904-2.525867-52.087467 9.284267-75.4688-8.8064-10.683733-6.7584-22.596267-7.3728-34.7136-6.997334-16.315733-5.597867-32.597333-11.229867-48.913067-16.827733-10.478933-14.1312-29.252267-9.659733-41.949867-18.807467-7.9872-6.690133-16.008533-13.380267-23.995733-20.0704-15.223467-2.696533-36.2496 1.2288-30.071467-26.146133-11.8784-16.349867-23.790933-32.699733-35.669333-49.0496-5.768533-10.922667-11.502933-21.8112-17.271467-32.733867-11.298133-20.616533-20.138667-42.0864-23.1424-65.6384-7.0656-11.502933-13.550933-23.2448-16.247466-36.693333-2.048-18.261333-7.168-37.102933 9.352533-51.985067 8.6016-32.938667 17.169067-65.911467 25.770667-98.850133 7.7824-64.955733 78.882133-138.376533 144.657066-149.367467 35.1232-15.1552 72.3968-22.4256 109.602134-29.866666 17.066667-16.5888 34.133333-16.622933 51.2-0.136534z" fill="#FDFDFD" /><path d="M735.573333 758.0672c16.213333-15.6672 27.921067-36.317867 49.800534-45.806933 14.097067 12.9024 36.590933 1.536 49.664 17.3056-8.669867 9.3184-23.415467-3.515733-31.300267 8.6016-27.613867 8.260267-36.317867 30.446933-40.789333 55.739733-33.8944 7.0656-11.502933-29.047467-27.374934-35.84z" fill="#FD575D" /><path d="M409.634133 252.7232c-65.024 33.4848-113.8688 82.6368-144.657066 149.367467-34.372267-5.632-39.424 28.945067-57.7536 44.373333-22.9376 19.285333-39.697067 45.943467-59.118934 69.4272v-122.914133C216.132267 321.877333 277.777067 244.906667 346.9312 174.762667c11.502933-11.6736 23.04-21.981867 38.4-27.613867h89.975467c-22.698667 26.862933-44.373333 54.6816-68.573867 80.110933-11.605333 12.288-5.290667 17.851733 2.901333 25.463467z" fill="#FD467E" /><path d="M385.3312 147.182933c-60.5184 67.072-123.904 131.549867-181.691733 201.216-14.848 17.885867-28.398933 40.6528-55.5008 44.612267 2.2528-63.351467 43.383467-104.174933 83.7632-145.6128 21.640533-22.186667 44.987733-42.564267 62.327466-69.154133 21.538133-33.006933 57.275733-30.72 91.101867-31.061334z" fill="#FD4680" /><path d="M322.218667 737.0752c10.0352 8.704 20.036267 17.442133 30.071466 26.146133-51.370667 19.6608-70.280533 73.489067-110.216533 105.198934-14.506667 11.502933-22.9376 31.368533-44.8512 32.6656-1.604267-9.079467-17.7152-15.4624-10.171733-24.234667 42.154667-49.322667 72.3968-110.455467 135.168-139.776z" fill="#FD4D6C" /><path d="M239.445333 556.4416c8.533333 9.796267 7.168 21.572267 6.690134 33.211733-19.387733-11.195733-24.9856 8.6016-36.352 15.906134-19.080533 12.253867-25.088 41.403733-53.486934 41.506133-7.714133-62.293333 5.495467-115.3024 65.4336-147.490133 14.7456 13.9264 4.061867 33.109333 10.103467 48.810666 1.877333 3.310933 4.4032 6.007467 7.611733 8.055467z" fill="#FD4978" /><path d="M524.424533 843.741867c-13.7216-2.116267-29.559467 5.768533-40.686933-8.6016 35.874133-7.5776 72.192-1.9456 108.305067-3.515734l6.0416 4.096c-23.108267 16.042667-49.220267 4.437333-73.659734 8.021334z" fill="#FD5763" /><path d="M580.164267 826.299733c13.243733-7.031467 27.511467-8.567467 42.1888-8.021333-4.9152 10.24-15.735467 12.219733-24.2688 17.408l-0.1024-0.238933c-4.369067-6.144-14.1312-1.7408-17.8176-9.147734z" fill="#FD5459" /><path d="M239.445333 556.4416c-3.106133 0.170667-6.212267 0.3072-9.352533 0.477867-6.587733-21.845333-6.997333-43.690667 0.238933-65.501867 2.9696 3.1744 5.9392 6.382933 8.874667 9.557333 0.1024 18.466133 0.170667 36.9664 0.238933 55.466667z" fill="#FD0564" /><path d="M230.331733 491.4176c-0.068267 21.845333-0.136533 43.656533-0.238933 65.501867-16.0768-17.169067-5.12-38.2976-8.3968-57.344 2.901333-2.730667 5.768533-5.461333 8.635733-8.157867z" fill="#FD507C" /><path d="M580.164267 826.299733c5.9392 3.037867 11.8784 6.109867 17.783466 9.147734l-114.244266-0.3072c6.0416-3.072 12.0832-6.144 18.1248-9.181867 26.112 0.1024 52.224 0.238933 78.336 0.341333z" fill="#FD2A40" /><path d="M843.3664 556.919467c0-21.879467-0.034133-43.7248-0.034133-65.604267 5.8368-1.6384 8.157867 21.469867 18.500266 0.3072 14.165333-28.910933 41.437867-47.8208 66.082134-70.3488 9.6256 16.520533 3.618133 31.4368 5.5296 45.499733-2.798933 35.157333-50.8928 83.319467-90.077867 90.146134z" fill="#FD525D" /><path d="M803.7376 738.2016c5.5296-20.753067 21.2992-4.232533 31.300267-8.6016-0.170667 4.096-0.3072 8.192-0.477867 12.253867-10.274133-1.194667-20.548267-2.423467-30.8224-3.652267z" fill="#FD2A35" /><path d="M671.300267 246.203733c-20.445867-0.477867-39.6288-6.144-58.2656-14.062933 3.447467-4.061867 8.226133-7.5776 10.205866-12.253867 24.917333-59.1872 72.021333-73.0112 130.218667-64.546133-23.176533 34.133333-49.083733 65.7408-82.158933 90.862933z" fill="#FD4B72" /><path d="M606.208 155.3408c-6.997333 21.947733-23.995733 35.5328-40.891733 49.152-19.080533 11.912533-38.161067 11.912533-57.275734 0 13.9264-54.033067 55.6032-52.4288 98.167467-49.152z" fill="#FD4978" /><path d="M570.436267 222.856533h-51.234134c-5.2224-5.632-19.694933 5.666133-19.1488-10.513066 29.934933-5.563733 59.869867-6.007467 89.736534 0.341333-6.417067 3.3792-12.9024 6.792533-19.3536 10.171733z" fill="#FD2973" /><path d="M589.824 212.6848l-89.736533-0.3072c2.6624-2.628267 5.3248-5.2224 7.9872-7.816533h57.275733c8.942933 0.273067 18.568533-1.4336 24.4736 8.123733z" fill="#FD517C" /><path d="M678.946133 387.2768l-2.423466 0.477867-1.536-1.9456c-8.362667 4.3008-14.506667 13.073067-25.224534 12.663466-14.199467-1.501867-28.296533-4.8128-42.734933-2.833066-8.6016 0.853333-14.984533 5.12-19.319467 12.561066-6.4512 21.742933-3.3792 33.006933 21.845334 20.309334 5.9392-3.618133 12.014933-6.826667 19.012266-7.748267 9.557333 1.3312 19.797333-1.536 28.672 4.437333 2.184533 5.12 4.4032 10.24 6.587734 15.394134a20.6336 20.6336 0 0 0 9.3184 8.0896c10.513067 4.130133 30.173867-1.809067 29.832533 13.4144-0.375467 16.827733-19.7632 14.2336-32.426667 15.223466-26.8288 2.116267-53.930667-1.8432-80.5888 2.8672-1.501867 1.024-3.140267 1.979733-4.642133 2.9696-1.160533 1.365333-2.4576 2.6624-3.584 4.027734-8.635733 10.069333-6.144 24.029867-11.9808 35.089066-2.082133 3.140267-4.881067 5.358933-8.2944 6.894934-22.357333 5.973333-26.3168-13.550933-35.6352-25.668267-2.9696-1.809067-5.905067-3.584-8.942933-5.085867-12.936533 6.280533-53.009067 44.817067-62.225067 60.040534 60.586667 6.212267 120.9344 7.850667 181.1456-0.750934 9.5232-13.7216-12.5952-14.165333-10.478933-24.7808-2.1504-12.8 4.983467-20.821333 14.1312-27.818666 4.3008-3.515733 8.9088-6.519467 14.062933-8.635734 3.720533-0.887467 7.099733-0.170667 10.1376 2.116267 13.073067 10.001067 29.969067 11.400533 43.4176 23.313067 11.025067 9.762133 16.145067 17.783467 13.175467 30.242133-3.720533 15.633067-16.622933 15.5648-29.4912 13.585067-4.266667 1.6384-7.2704 4.539733-9.045334 8.8064-6.4512 37.102933 3.822933 75.127467-6.075733 112.059733-11.0592 11.639467-23.3472 10.8544-36.2496 3.549867a23.517867 23.517867 0 0 1-6.280533-10.786134c-0.170667-1.979733-0.3072-4.061867-0.477867-6.075733 0.375467-1.911467 0.785067-3.8912 1.1264-5.8368a25.483947 25.483947 0 0 1 6.587733-9.079467c2.594133-2.321067 5.358933-4.539733 8.055467-6.724266 7.099733-10.478933 6.178133-21.367467 1.536-32.392534-2.525867-1.979733-4.949333-4.027733-7.543467-5.905066-1.365333-0.887467-2.6624-1.877333-4.027733-2.7648-1.365333-0.9216-2.6624-1.911467-4.027733-2.833067-2.798933-1.774933-5.5296-3.6864-8.2944-5.461333-14.779733-3.6864-29.4912-3.959467-44.100267-0.170667-3.754667 2.9696-3.7888 7.168-3.447467 11.434667 0.580267 2.9696 0.785067 5.905067 0.887467 8.9088-0.068267 3.072-0.4096 6.075733-0.955733 9.079466-0.546133 4.608-0.785067 9.250133-0.9216 13.892267-0.375467 6.519467 0.136533 12.936533 1.570133 19.3536 0.3072 1.774933 0.512 3.4816 0.8192 5.256533 0.238933 3.7888-0.136533 7.406933-1.024 11.093334-1.4336 3.754667-3.618133 6.894933-6.485333 9.693866-19.694933 7.133867-39.185067 9.5232-58.026667-2.4576-2.491733-3.037867-4.471467-6.417067-6.0416-10.001066-1.501867-3.3792-2.7648-6.929067-3.8912-10.4448-7.748267-17.988267-37.034667-5.597867-40.994133-28.945067 4.130133-21.2992 25.8048-13.994667 37.2736-23.2448 3.003733-3.9936 4.676267-8.362667 4.5056-13.312-0.887467-3.140267-2.2528-5.905067-4.573867-8.226133-12.322133-4.096-24.3712-3.618133-36.2496 0.682666-2.286933 2.423467-4.642133 4.778667-6.8608 7.236267-3.1744 3.754667-6.792533 7.0656-10.683733 10.069333-2.3552 2.1504-4.778667 4.266667-7.099734 6.417067-5.0176 10.9568-5.12 21.777067 0.785067 32.426667 2.8672 2.116267 5.563733 4.334933 8.2944 6.656 2.9696 2.56 5.154133 5.563733 6.792533 9.079466 1.1264 3.959467 1.365333 7.918933 0.9216 12.014934a23.087787 23.087787 0 0 1-6.0416 11.0592c-12.5952 7.168-24.644267 9.045333-35.328-3.345067-2.594133-34.065067-0.2048-68.3008-1.979733-102.4 1.979733 31.5392-0.034133 63.146667 0.648533 94.72-0.034133 4.437333 0.341333 8.840533 1.160534 13.2096-0.341333 4.573867-2.048 8.6016-5.051734 12.049067-5.597867 1.092267-8.0896-1.672533-8.635733-6.929067-6.144-42.8032-5.5296-85.640533-0.2048-128.477867-5.973333-5.802667-16.384-7.850667-16.213333-18.944-8.0896-12.288-2.048-20.343467 8.0896-27.170133-1.979733-20.8896 22.186667-14.916267 29.320533-29.764267-10.683733-11.0592-27.579733 0.3072-38.365867-8.9088 3.037867-6.178133 9.966933-6.929067 14.336-10.5472-9.147733-1.4336-15.633067-4.881067-14.472533-15.36 9.386667-11.1616 23.7568-4.983467 34.9184-10.001066a20.1728 20.1728 0 0 0 7.133867-7.441067c1.809067-14.0288 6.792533-28.706133-8.123734-39.253333-5.3248-21.879467 1.809067-33.860267 25.736534-32.768 17.271467 0.785067 34.6112-1.877333 51.268266 1.194666-18.0224-6.382933-39.5264 7.338667-54.545066-11.0592 47.0016-7.202133 94.344533-6.519467 141.687466-6.144 4.437333 3.584 9.8304 4.983467 15.121067 6.656 13.6192 1.8432 27.306667 0.7168 40.994133 1.024 14.813867 1.536 30.9248-4.1984 43.793067 7.918934 2.218667 6.9632 3.140267 13.585067-2.833067 19.182933z" fill="#313131" /><path d="M287.709867 630.545067c-25.224533-50.722133-24.200533-104.379733-17.988267-158.685867 1.399467-12.356267 7.509333-22.7328 20.3776-19.456 13.5168 3.447467 5.2224 16.110933 4.061867 24.098133-7.031467 47.8208-10.581333 95.4368 2.7648 142.813867 3.413333 9.147733-0.750933 11.9808-9.216 11.229867z" fill="#1D1D1D" /><path d="M409.975467 704.136533c-0.068267-3.2768-0.136533-6.5536-0.170667-9.8304 87.483733-10.0352 175.069867-6.5536 262.690133-1.9456 6.314667 0.785067 8.738133 4.266667 7.304534 10.478934-89.941333 7.543467-179.882667 4.949333-269.824 1.297066z"  /><path d="M573.508267 474.146133c39.082667-16.964267 80.418133-1.194667 122.5728-9.591466-8.9088-10.888533-26.624-0.989867-32.631467-14.1312 16.6912-6.212267 33.314133-6.690133 49.902933 0.341333 3.447467 4.949333 12.765867 7.68 6.212267 16.452267-47.547733 26.4192-96.3584 26.3168-146.056533 6.929066z" fill="#3C3C3C" /><path d="M657.271467 425.233067c-8.635733 4.334933-17.3056 6.519467-26.112 0.512-4.130133-2.628267-5.905067-6.997333-8.123734-10.990934-12.3904-9.181867-31.982933 1.4336-41.506133-15.223466 5.802667-4.846933 11.639467-9.693867 17.442133-14.5408 13.994667 9.386667 30.446933 0.1024 44.919467 5.870933 10.376533-1.672533 20.718933-3.3792 31.095467-5.051733-4.437333 13.789867-29.0816 18.500267-17.7152 39.424z" fill="#3F3F3F" /><path d="M524.322133 369.0496c-22.4256 15.4624-47.889067 7.816533-71.338666 6.519467-22.1184-1.2288-28.706133 10.1376-35.2256 25.8048-5.0176 1.467733-7.816533-0.4096-8.430934-5.597867-3.7888-12.458667-8.977067-25.326933 9.4208-30.993067 35.157333 1.774933 70.690133-5.461333 105.5744 4.266667z" fill="#3A3A3A" /><path d="M573.508267 474.146133c48.64-3.072 97.9968 8.157867 146.056533-6.9632 1.262933 7.338667-0.273067 13.653333-6.7584 18.090667-45.1584-2.935467-90.282667 22.801067-135.509333 0.273067-1.262933-3.7888-2.525867-7.5776-3.7888-11.400534z" fill="#212121" /><path d="M679.765333 702.839467l0.375467-3.2768c-3.652267-3.959467-5.085867-8.635733-4.3008-13.960534 2.56-40.106667-5.12-80.622933 4.334933-120.490666 3.549867 0.2048 7.099733 0.443733 10.615467 0.648533-0.068267 33.860267 0.4096 67.720533-0.546133 101.546667-0.3072 12.288 6.5536 27.784533-10.478934 35.5328z" fill="#030303" /><path d="M577.297067 485.5808c45.1584-0.1024 90.3168-0.170667 135.509333-0.273067-14.062933 13.7216-31.8464 4.437333-47.581867 7.748267-18.090667 6.212267-36.420267 11.0592-55.876266 9.454933-12.219733-0.170667-24.405333-0.512-34.952534-8.021333-4.676267-4.437333-4.096-7.953067 1.774934-10.615467l1.1264 1.706667z" fill="#CBCBCB" /><path d="M401.134933 568.7296l0.2048 128.477867c-6.724267-42.8032-9.3184-85.640533-0.2048-128.477867z" fill="#343434" /><path d="M524.322133 369.0496l-106.325333-0.9216c-2.3552-1.706667-3.106133-3.413333-2.321067-5.12 0.785067-1.672533 1.604267-2.525867 2.389334-2.525867 7.3728-0.580267 14.779733-1.194667 22.152533-1.774933 27.8528 1.2288 55.7056 2.423467 83.5584 3.7888 0.682667 0.034133 1.809067 1.809067 1.8432 2.7648 0.034133 1.262933-0.8192 2.525867-1.297067 3.7888z" fill="#121212" /><path d="M401.476267 302.216533c-2.7648 2.8672-5.0176 7.099733-8.430934 8.430934-14.4384 5.666133-23.108267 38.468267-37.5808 21.162666-11.946667-14.267733 19.3536-22.3232 29.4912-34.884266 1.467733-1.809067 4.676267-2.184533 7.0656-3.208534 9.250133-3.9936 10.513067 0.955733 9.454934 8.4992z" fill="#141414" /><path d="M590.370133 360.994133l-8.4992-8.3968c32.529067-1.297067 65.1264-5.3248 97.553067 1.399467 2.4576 4.846933 1.1264 8.0896-4.027733 9.762133-15.325867 0.9216-30.651733 0.273067-45.943467 0.477867-13.038933-1.2288-26.453333 2.833067-39.082667-3.242667z"  /><path d="M321.194667 376.7296c-0.238933-1.297067-1.092267-3.003733-0.580267-3.857067 6.0416-9.864533-1.024-28.808533 19.285333-28.672 3.720533 0.034133 10.752 2.389333 10.683734 3.413334-0.750933 14.5408-9.4208 23.552-22.254934 29.115733-2.3552 2.4576-4.744533 2.4576-7.133866 0z" fill="#121212" /><path d="M385.3312 458.5472c9.4208 15.701333 31.505067 0.6144 40.721067 16.827733-17.339733 5.870933-34.7136 5.188267-52.087467 0.136534-8.0896-8.840533-9.181867-17.442133 0.955733-25.6 3.413333-2.116267 6.997333-2.56 10.820267-1.297067 2.56 3.413333 2.423467 6.724267-0.4096 9.9328z" fill="#3A3A3A" /><path d="M393.045333 522.615467l-8.0896 27.170133c-15.121067-2.833067-25.1904-10.752-18.090666-26.760533 6.792533-15.36 17.271467-4.3008 26.180266-0.4096z" fill="#343434" /><path d="M605.4912 492.612267c19.899733 0.136533 39.799467 0.3072 59.733333 0.443733-0.989867 1.7408-1.501867 3.584-1.536 5.563733-2.935467 0.682667-5.8368 1.3312-8.772266 2.013867-14.779733 6.0416-29.559467 11.707733-45.431467 3.515733-4.334933-2.798933-5.632-6.656-3.9936-11.537066z" fill="#D9D9D9" /><path d="M418.030933 360.516267c0.1024 2.56 0.1024 5.085867-0.068266 7.645866-10.5472 6.792533-7.168 17.988267-8.669867 27.613867-14.472533-8.738133-9.4208-23.04-9.591467-35.566933-0.068267-4.5056-0.648533-12.970667 6.314667-11.844267 4.539733 0.7168 8.055467 7.850667 12.014933 12.151467z" fill="#070707" /><path d="M373.9648 475.511467c17.373867-0.034133 34.747733-0.1024 52.087467-0.136534-12.253867 11.605333-28.7744 2.116267-42.052267 8.6016-3.345067-2.833067-6.690133-5.666133-10.0352-8.465066zM385.399467 451.618133c-3.4816-0.580267-6.997333-1.1264-10.478934-1.706666 14.301867-17.92 34.2016-4.983467 50.961067-9.3184 0.136533 3.310933 0.238933 6.587733 0.375467 9.898666-13.482667 6.417067-27.136 4.881067-40.8576 1.1264z"  /><path d="M459.5712 268.288c4.437333-17.5104 14.4384-15.837867 26.180267-13.482667-5.256533 12.765867-14.813867 12.151467-26.180267 13.482667z" fill="#9E9E9E" /><path d="M713.352533 450.7648c-16.622933-0.1024-33.28-0.238933-49.902933-0.341333 0.136533-3.2768 0.273067-6.5536 0.375467-9.8304 16.0768 5.666133 36.625067-10.752 49.527466 10.171733z"  /><path d="M287.709867 630.545067c3.072-3.720533 6.144-7.4752 9.216-11.195734 4.676267 11.6736 9.352533 23.381333 15.223466 38.126934-22.1184-2.4576-20.3776-16.896-24.439466-26.9312z" fill="#2E2E2E" /><path d="M401.476267 302.216533c-3.140267-2.833067-6.314667-5.666133-9.454934-8.4992 7.3728-6.417067 18.670933-18.261333 24.576-10.513066 10.274133 13.482667-8.123733 13.7216-15.121066 19.012266z" fill="#3A3A3A" /><path d="M679.389867 356.522667l0.034133-2.525867c12.8 11.298133 22.1184 22.528-0.477867 33.28-0.034133-6.519467-0.1024-13.038933-0.136533-19.592533-3.1744-3.8912-2.9696-7.611733 0.580267-11.1616z" fill="#292929" /><path d="M296.823467 425.2672c7.714133 2.730667 11.5712 10.5472 4.778666 13.755733-8.0896 3.822933-12.014933-5.393067-13.346133-13.277866 2.730667-2.56 5.563733-2.628267 8.567467-0.477867z" fill="#060606" /><path d="M311.125333 393.591467c-2.6624-1.706667-5.358933-3.413333-8.021333-5.12 0.9216-0.9216 2.491733-2.696533 2.628267-2.594134 2.4576 1.8432 4.778667 3.925333 7.099733 5.973334l-1.706667 1.7408zM321.194667 376.7296c2.389333 0.3072 4.744533 0.273067 7.133866-0.034133-1.536 2.901333-3.072 5.802667-4.573866 8.704l-2.56-8.669867zM303.547733 405.333333c-1.809067 0.9216-3.584 2.116267-5.495466 2.525867-0.682667 0.136533-1.774933-1.6384-2.696534-2.56 1.809067-0.9216 3.549867-2.116267 5.495467-2.56 0.682667-0.136533 1.774933 1.6384 2.696533 2.594133z"  /><path d="M312.832 391.816533l8.055467 5.188267-4.539734 4.539733-5.2224-7.9872c0 0.034133 1.706667-1.7408 1.706667-1.7408zM296.823467 425.2672l-8.567467 0.512c0.9216-3.037867 1.809067-6.075733 2.730667-9.1136 1.9456 2.833067 3.8912 5.700267 5.8368 8.6016z"  /><path d="M605.4912 492.612267c0.443733 2.2528 0.682667 4.539733 0.682667 6.826666 5.8368 5.358933 10.103467 11.9808 15.018666 18.1248 3.652267 5.256533 6.587733 10.888533 8.567467 16.964267 4.164267 9.557333 20.855467 6.519467 20.241067 20.104533-0.068267 1.365333-7.099733 2.4576-10.922667 3.652267-30.446933 12.765867-61.986133 5.358933-93.149867 5.188267-12.458667-5.0176-19.012267-13.5168-16.0768-27.5456 9.181867-14.336 25.7024-3.1744 36.898134-10.5472l-1.1264-0.512c9.250133-9.3184-2.628267-24.814933 9.6256-33.245867 10.103467 0.341333 20.1728 0.648533 30.242133 0.989867z" fill="#E8E8E8" /><path d="M532.309333 536.576c2.833067 6.075733 5.632 12.151467 8.465067 18.2272-29.354667 18.466133-59.733333 11.605333-90.146133 3.618133-24.2688-11.912533 2.935467-22.493867 4.061866-22.903466 20.138667-7.3728 32.529067-18.568533 37.853867-41.403734 4.471467-19.217067 19.319467-4.334933 29.730133-2.286933 14.7456 7.7824 8.362667 22.3232 10.8544 34.030933 0.2048 3.618133-0.1024 7.168-0.8192 10.717867z" fill="#EAEAEA" /><path d="M467.694933 637.064533c6.2464 16.5888 20.411733 7.099733 30.856534 8.840534 10.888533 1.809067 22.7328 0.443733 17.7152 17.544533-22.016 15.530667-44.1344 14.848-66.321067 0.4096l-2.798933-0.989867-2.935467 0.273067c-14.267733-18.807467-13.5168-37.751467-0.580267-56.866133 2.389333-2.7648 4.778667-5.563733 7.168-8.328534 21.845333-11.912533 43.656533-12.424533 65.3312 0.443734-0.068267 7.509333-0.1024 15.018667-0.170666 22.493866-9.762133 10.376533-22.391467 3.4816-33.518934 5.597867-6.485333 1.2288-17.169067-3.1744-14.7456 10.581333z" fill="#CBCBCB" /><path d="M450.594133 558.421333c30.037333-1.194667 60.1088-2.389333 90.146134-3.618133l98.338133 3.4816c0 5.051733 18.500267 13.585067 1.1264 14.199467-63.488 2.218667-127.146667 2.184533-190.634667 0.034133-17.544533-0.6144 1.024-9.1136 1.024-14.097067z" fill="#2D2D2D" /><path d="M678.946133 688.093867c0.4096 3.7888 0.8192 7.5776 1.194667 11.400533-75.264-7.5776-150.698667-1.160533-226.030933-3.310933-14.779733-0.4096-29.559467-1.2288-44.3392-1.8432 0.546133-2.013867 0.955733-4.061867 1.2288-6.109867 2.218667-4.164267 4.608-4.232533 7.133866-0.273067 11.332267-1.058133 24.1664 3.857067 32.6656-8.328533 21.742933-11.707733 43.52-11.605333 65.3312-0.1024 19.012267 13.550933 38.126933 13.0048 57.309867 0.443733 21.742933-15.394133 43.52-15.325867 65.4336-0.3072 8.4992 12.219733 21.367467 7.2704 32.699733 8.328534 2.525867-3.9936 4.983467-3.925333 7.3728 0.1024z" fill="#3D3D3D" /><path d="M515.413333 401.749333c14.4384 15.837867 12.0832 28.125867-5.2224 41.2672-20.138667 15.2576-23.7568-0.853333-32.938666-12.561066-7.031467-8.977067-20.821333-12.9024-18.090667-28.16 18.6368-11.537067 37.376-13.755733 56.251733-0.546134z" fill="#DBDBDB" /><path d="M581.495467 399.530667c15.291733 8.192 38.024533-15.2576 48.913066 11.605333-5.700267 8.123733-13.824 14.4384-17.954133 23.7568-11.946667 4.130133-22.357333 26.180267-35.464533 9.386667-9.352533-12.049067-15.598933-31.778133 4.5056-44.7488z" fill="#D2D2D2" /><path d="M572.5184 615.048533l-6.8608-15.0528c2.423467-4.5056 5.973333-5.700267 10.6496-3.652266 20.48 5.632 43.554133-5.495467 62.5664 9.762133l0.7168-0.6144c13.243733 19.456 13.9264 38.7072-0.8192 57.7536l-1.092267-0.443733c-21.230933 13.277867-42.564267 12.356267-63.965866 0.477866l-0.034134-0.034133c0.955733-20.992 20.2752-14.677333 30.958934-21.060267 4.4032-3.208533 10.1376-5.393067 9.079466-12.561066-1.979733-2.218667-4.1984-3.7888-7.031466-4.676267-11.844267-2.1504-24.4736-1.024-34.167467-9.898667z" fill="#F6F6F6" /><path d="M418.167467 687.957333c-2.389333 0.034133-4.778667 0.136533-7.133867 0.273067v-112.878933l7.133867-0.2048v112.810666z" fill="#3A3A3A" /><path d="M678.946133 688.093867c-2.4576-0.068267-4.9152-0.1024-7.3728-0.136534 5.0176-40.789333-10.205867-83.012267 8.6016-122.88l-1.2288 123.016534z" fill="#393939" /><path d="M621.806933 623.7184c20.3776 15.086933-2.798933 17.169067-7.3728 24.814933-13.824 2.833067-27.682133 5.905067-40.994133-1.979733-0.853333-5.3248-8.942933-10.6496 0.068267-15.940267 14.6432-12.4928 31.812267-7.2704 48.298666-6.894933z" fill="#3A3A3A" /><path d="M573.303467 600.1664l-3.7888-0.682667-3.822934 0.512c24.029867-17.169067 48.469333-14.6432 73.147734-1.536-21.7088 6.109867-43.6224 3.652267-65.536 1.706667zM638.8736 679.6288l-65.399467 0.3072 0.4096-9.9328c21.469867-4.027733 43.008-3.208533 64.512-0.512 0.170667 3.3792 0.3072 6.7584 0.477867 10.1376z"  /><path d="M613.922133 522.103467c-10.717867-4.778667-13.141333-12.356267-7.748266-22.664534 16.247467 0.4096 32.494933 0.785067 48.7424 1.194667l-8.6016 8.192c-10.9568 3.959467-22.766933 5.973333-32.392534 13.277867z" fill="#090909" /><path d="M516.164267 679.5264c-21.777067 0.034133-43.554133 0.068267-65.3312 0.136533 0.034133-2.8672 0.034133-5.768533 0.068266-8.635733 21.674667-5.563733 43.383467-4.9152 65.160534-0.477867 0 2.9696 0.034133 5.973333 0.1024 8.977067z"  /><path d="M566.749867 525.4144c-8.328533 13.482667-24.064 4.027733-34.440534 11.1616l-1.672533-2.4576 2.082133-2.1504c-6.314667-13.5168-6.144-27.0336-0.170666-40.584533 11.229867 11.4688 7.202133 38.434133 34.2016 34.030933z" fill="#3E3E3E" /><path d="M467.694933 637.064533c-10.752-9.1136-2.798933-13.9264 4.983467-14.848 14.267733-1.706667 28.842667-1.024 43.3152-1.3312-11.093333 20.411733-35.464533 1.024-48.298667 16.1792z" fill="#0C0C0C" /><path d="M450.7648 589.6192c21.845333-12.3904 43.656533-13.0048 65.365333 0.4096-21.8112 5.700267-43.6224 6.280533-65.365333-0.4096z" fill="#373737" /><path d="M450.7648 589.6192l65.365333 0.4096v8.328533c-21.777067-0.136533-43.554133-0.273067-65.3312-0.443733 0-2.730667-0.034133-5.5296-0.034133-8.2944z"  /><path d="M638.395733 669.4912l-64.512 0.512c0.1024-2.218667 0.068267-4.471467-0.170666-6.690133 21.333333-0.170667 42.666667-0.341333 63.965866-0.477867 0 2.2528 0.238933 4.471467 0.7168 6.656z" fill="#D8D8D8" /><path d="M515.413333 401.749333c-18.7392 0.170667-37.512533 0.375467-56.251733 0.546134l8.533333-9.966934c16.0768-5.085867 32.119467-5.358933 48.162134 0.2048 6.519467 3.3792 3.3792 6.314667-0.443734 9.216z" fill="#020202" /><path d="M516.027733 670.549333c-21.7088 0.170667-43.4176 0.3072-65.160533 0.477867-0.3072-2.389333-0.6144-4.778667-0.955733-7.133867l66.321066-0.4096c-0.2048 2.321067-0.3072 4.676267-0.2048 7.0656z" fill="#B4B4B4" /><path d="M573.303467 600.1664c21.845333-0.580267 43.690667-1.1264 65.536-1.706667 0.7168 2.56 0.7168 5.085867 0.034133 7.645867-21.777067-3.003733-44.578133 5.700267-65.570133-5.9392z" fill="#C9C9C9" /><path d="M638.7712 663.2448l0.8192-57.7536c2.3552 0.170667 4.7104 0.4096 7.0656 0.648533 12.014933 19.217067 12.936533 38.263467-0.750933 57.1392l-3.549867-0.034133h-3.584z" fill="#9D9D9D" /><path d="M573.44 646.587733c13.653333 0.648533 27.3408 1.297067 40.994133 1.979734-10.683733 13.038933-31.1296-1.1264-40.789333 14.7456-11.946667-5.461333-4.1984-11.127467-0.2048-16.725334z" fill="#D8D8D8" /><path d="M443.630933 606.276267c0.2048 18.944 0.4096 37.888 0.580267 56.866133l-9.454933 0.3072c-6.929067-19.080533-6.314667-38.1952-0.3072-57.344 3.037867 0.034133 6.109867 0.1024 9.181866 0.170667z"  /><path d="M655.1552 606.1056c13.073067 19.114667 13.175467 38.1952-0.068267 57.275733-5.870933-19.080533-5.973333-38.1952 0.068267-57.275733z" fill="#3A3A3A" /><path d="M613.922133 522.103467c3.822933-21.572267 20.411733-11.810133 32.426667-13.277867-6.382933 8.021333-17.339733 13.073067-16.5888 25.7024-6.792533-2.218667-13.312-4.778667-15.837867-12.424533z" fill="#3E3E3E" /><path d="M655.1552 606.1056c-0.034133 19.080533-0.034133 38.1952-0.068267 57.275733-3.072-0.034133-6.109867-0.068267-9.181866-0.136533 0.238933-19.0464 0.477867-38.0928 0.750933-57.1392 2.833067 0.034133 5.666133 0 8.4992 0z"  /><path d="M434.449067 606.071467l0.3072 57.344c-13.5168-19.0464-13.073067-38.161067-0.3072-57.344z" fill="#383838" /><path d="M621.806933 623.7184c-14.4384 13.789867-32.256 4.130133-48.298666 6.929067 0-2.7648 0-5.5296-0.034134-8.260267 16.384-6.178133 32.802133-5.8368 49.2544-0.238933l-0.9216 1.570133z"  /><path d="M643.857067 390.8608c-15.018667-1.672533-31.573333 8.430933-44.919467-5.870933 14.9504 2.184533 31.266133-6.212267 44.919467 5.870933z" fill="#030303" /><path d="M515.822933 392.533333l-48.162133-0.2048c16.110933-11.6736 32.187733-11.776 48.162133 0.2048z" fill="#3E3E3E" /><path d="M679.389867 356.522667l-0.6144 11.1616c-16.008533 0.2048-32.017067 0.443733-47.991467 0.682666-2.730667-1.604267-3.618133-3.208533-2.696533-4.778666 0.9216-1.570133 1.8432-2.3552 2.7648-2.3552l48.5376-4.7104z" fill="#3F3F3F" /><path d="M622.762667 622.148267c-16.418133 0.068267-32.836267 0.170667-49.2544 0.238933-0.887467-2.3552-1.194667-4.8128-0.989867-7.338667 16.759467 2.321067 35.259733-7.748267 50.244267 7.099734z" fill="#AFAFAF" /><path d="M385.399467 451.618133c13.6192-0.375467 27.204267-0.7168 40.823466-1.092266-11.537067 13.448533-27.101867 6.109867-40.891733 8.021333 0.034133-2.321067 0.034133-4.642133 0.068267-6.929067z" fill="#3D3D3D" /><path d="M575.249067 491.656533l-9.6256 33.245867c4.744533-13.346133-7.168-30.993067 10.5472-40.994133 0.136533 2.628267-0.170667 5.2224-0.9216 7.748266z" fill="#1F1F1F" /><path d="M630.8864 361.233067c-0.068267 2.389333-0.1024 4.744533-0.068267 7.133866-13.585067-1.8432-28.808533 5.256533-40.413866-7.3728 13.482667 0.1024 26.965333 0.170667 40.482133 0.238934z" fill="#393939" /><path d="M612.4544 434.8928c-2.730667-14.506667 6.485333-20.002133 17.954133-23.7568l0.7168 14.609067c-6.212267 3.037867-12.424533 6.109867-18.670933 9.147733z" fill="#222222" /><path d="M532.48 491.383467c0.068267 13.5168 0.136533 27.067733 0.170667 40.584533-18.670933-9.4208-4.334933-27.4432-10.4448-40.1408 3.447467-0.170667 6.8608-0.3072 10.274133-0.443733z"  /></svg>