<?xml version="1.0" standalone="no"?><!DOCTYPE svg PUBLIC "-//W3C//DTD SVG 1.1//EN" "http://www.w3.org/Graphics/SVG/1.1/DTD/svg11.dtd"><svg class="icon" width="200px" height="200.00px" viewBox="0 0 1024 1024" version="1.1" xmlns="http://www.w3.org/2000/svg"><path fill="#13227a" d="M853.333333 0a170.666667 170.666667 0 0 1 170.666667 170.666667v682.666666a170.666667 170.666667 0 0 1-170.666667 170.666667H170.666667a170.666667 170.666667 0 0 1-170.666667-170.666667V170.666667a170.666667 170.666667 0 0 1 170.666667-170.666667h682.666666z m-214.101333 347.818667h-54.954667v112.896c-2.389333 72.277333-14.336 130.816-35.84 176.213333-22.698667 42.410667-65.109333 77.653333-127.829333 105.130667l30.464 49.578666c64.512-27.477333 111.104-65.706667 140.373333-115.882666 8.362667-16.725333 16.128-35.242667 23.296-56.149334v99.157334c0 38.826667 17.92 58.538667 53.76 58.538666h59.136c19.114667 0 34.048-4.778667 43.605334-13.738666 9.557333-10.154667 16.725333-40.618667 20.906666-91.392l-52.565333-17.322667c-1.792 34.048-4.181333 54.357333-7.765333 61.525333-3.584 5.973333-8.362667 8.96-14.336 8.96h-32.256c-10.752 0-15.530667-6.570667-15.530667-18.517333v-116.48h-46.592c8.96-37.034667 14.336-80.64 16.128-129.621333V347.818667zM357.888 230.144l-53.76 15.530667c11.946667 22.101333 22.101333 44.8 31.061333 68.096H250.368v54.357333h140.373333c-26.88 60.928-78.250667 123.050667-154.112 187.562667l17.92 59.733333a1114.453333 1114.453333 0 0 0 66.304-60.928v232.362667h55.552v-238.933334c19.114667 15.530667 37.632 33.450667 56.149334 53.76l32.256-48.981333a542.336 542.336 0 0 0-86.016-65.109333c31.061333-41.813333 54.357333-83.626667 68.693333-126.037334v-47.786666H388.949333a709.802667 709.802667 0 0 0-31.061333-83.626667z m387.669333 25.685333h-264.618666v336.298667h56.149333V310.186667h151.125333v281.941333h57.344V255.829333z"  /></svg>