<?xml version="1.0" standalone="no"?><!DOCTYPE svg PUBLIC "-//W3C//DTD SVG 1.1//EN" "http://www.w3.org/Graphics/SVG/1.1/DTD/svg11.dtd"><svg class="icon" width="200px" height="200.00px" viewBox="0 0 1024 1024" version="1.1" xmlns="http://www.w3.org/2000/svg"><path fill="#13227a" d="M101.333333 1018.496V875.221333h28.416v56.341334h53.76v-56.341334h28.224v143.274667H183.509333v-61.952h-53.76v61.952H101.333333z m189.077334 2.709333c-29.952 0-53.376-21.098667-53.376-56.725333 0-35.242667 24.384-57.12 50.112-57.12 29.568 0 44.928 21.877333 44.928 51.893333 0 5.226667-0.576 10.453333-1.344 12.970667h-66.24c2.304 17.813333 13.824 27.104 29.76 27.104 8.832 0 16.512-2.709333 24.192-7.552l9.6 17.429333c-10.56 7.36-24.192 12-37.632 12z m-26.304-67.765333h43.776c0-14.72-6.528-24-20.352-24-11.328 0-21.312 8.128-23.424 24z m114.4 67.765333c-19.2 0-31.872-13.749333-31.872-32.138666 0-23.232 18.624-35.434667 61.824-40.074667-0.384-10.656-4.992-18.773333-18.24-18.773333-9.984 0-19.584 4.448-29.568 10.250666l-10.176-18.773333c12.672-7.946667 28.032-14.336 44.928-14.336 27.264 0 41.28 16.458667 41.28 47.829333v63.306667h-23.04l-2.112-11.616h-0.576c-9.408 8.128-20.16 14.325333-32.448 14.325333z m9.216-22.261333c8.064 0 14.016-3.872 20.736-10.656v-21.866667c-26.112 3.477333-34.944 10.645333-34.944 20.32 0 8.522667 5.952 12.202667 14.208 12.202667z m114.965333 22.261333c-26.688 0-43.968-21.290667-43.968-56.725333 0-35.434667 21.888-57.12 45.12-57.12 12.096 0 19.584 4.650667 27.264 11.808l-1.152-17.034667V864h28.224v154.506667h-22.848l-2.304-11.232h-0.576c-7.872 7.744-18.624 13.941333-29.76 13.941333z m7.296-23.424c7.488 0 13.824-3.093333 19.968-11.232v-47.626666c-6.528-6.005333-13.248-8.128-19.968-8.128-12.096 0-22.272 11.616-22.272 33.301333 0 22.453333 8.064 33.685333 22.272 33.685333z m104.416 23.424c-19.584 0-26.496-12.970667-26.496-33.109333V864h28.032v125.461333c0 6.4 3.072 8.522667 5.76 8.522667 1.152 0 1.92 0 3.84-0.384l3.456 21.098667c-3.264 1.354667-8.064 2.517333-14.592 2.517333z m33.365333-2.709333V910.069333h28.032v108.426667h-28.032z m14.208-125.845333c-9.792 0-16.896-6.581333-16.896-15.488 0-9.301333 7.104-15.488 16.896-15.488 9.6 0 16.704 6.186667 16.704 15.488 0 8.906667-7.104 15.488-16.704 15.488z m43.552 125.845333V910.069333h23.04l1.92 14.336h0.768c9.408-9.301333 20.352-17.045333 34.944-17.045333 23.232 0 33.216 16.266667 33.216 43.562667v67.573333h-28.224v-64.085333c0-16.650667-4.608-22.656-15.168-22.656-8.832 0-14.4 4.266667-22.464 12.202666v74.538667h-28.032z m169.109334 2.709333c-29.952 0-53.376-21.098667-53.376-56.725333 0-35.242667 24.384-57.12 50.112-57.12 29.568 0 44.928 21.877333 44.928 51.893333 0 5.226667-0.576 10.453333-1.344 12.970667h-66.24c2.304 17.813333 13.824 27.104 29.76 27.104 8.832 0 16.512-2.709333 24.192-7.552l9.6 17.429333c-10.56 7.36-24.192 12-37.632 12z m-26.304-67.765333h43.776c0-14.72-6.528-24-20.352-24-11.328 0-21.312 8.128-23.424 24zM422.101333 55.082667l50.688 122.56h-64.106666L371.413333 87.968c-2.986667-8.96-9.461333-12.938667-19.381333-11.946667H243.2V29.664h137.152c22.858667 0 36.768 8.48 41.749333 25.408zM119.456 241.92a49.258667 49.258667 0 0 1 49.194667-49.322667h87.957333v-53.802666h65.6v53.802666H440c44.512 0 42.421333 26.24 14.912 53.813334L350.506667 370.666667a49.621333 49.621333 0 0 1-37.994667 17.728h-64.853333l123.733333-146.485334H119.466667zM202.176 1.173333h40.757333L189.525333 158.218667c-5.973333 13.962667-16.906667 20.928-32.8 20.928H112L172.373333 21.578667A31.978667 31.978667 0 0 1 202.186667 1.162667z"  /><path fill="#13227a" d="M134.826667 543.146667h158.261333c-5.088 33.28-10.986667 48.448-38.048 48.448H134.826667V543.146667z m0-77.802667h147.274666c-4.074667 33.28-16.746667 49.92-38.048 49.92H134.826667v-49.92zM469.226667 786.496c4.074667 3.914667 1.184 10.624-4.565334 10.624h-75.712l-66.954666-64.597333C272.288 771.669333 202.282667 793.216 112 797.130667v-37.237334c0-8.725333 6.794667-16.074667 15.786667-17.066666 71.413333-7.808 126.506667-31.786667 165.301333-71.946667H135.061333c-11.061333 0-20.021333-8.650667-20.021333-19.317333v-29.130667h176.394667c10.154667 0 18.389333-7.946667 18.389333-17.749333V458.229333c0-7.424 6.24-13.44 13.930667-13.44h51.509333v177.642667h105.002667v48.448H369.173333l-10.538666 16.266667 110.613333 99.36z"  /><path fill="#13227a" d="M743.093333 725.066667h40.469334c28.693333 0 25.472 5.909333 31.466666 17.749333l22.485334 59.157333h-50.965334c-7.242667 0-13.76-4.341333-16.469333-10.965333l-26.986667-65.941333zM549.770667 577.162667c0 2.965333 3.498667 5.92 10.496 8.874666 7.978667 2.954667 15.509333 3.765333 22.474666 4.437334 22.592 2.176 42.677333-0.96 49.674667-2.954667l35.786667-11.733333-35.786667-6.016c-6.997333-2.954667-26.186667-6.933333-49.674667-4.437334-6.954667 0.736-14.496 1.482667-22.474666 4.437334-6.997333 1.984-10.496 4.437333-10.496 7.392z m-32.96 149.376h52.224a9.482667 9.482667 0 0 1 9.301333 11.712l-16.576 66.677333h-64.437333l19.477333-78.389333z m65.888-273.6c2.688 0 4.373333 2.858667 3.04 5.162666a3.466667 3.466667 0 0 0 3.050666 5.184h226.24c20.981333 5.92 27.957333 21.696 20.981334 47.328l-83.925334 62.112c14.986667 4.949333 30.965333 8.384 47.968 10.346667h23.2c13.664 0 24.746667 10.944 24.746667 24.426667v27.349333h-59.946667c-31.978667-3.925333-54.954667-8.874667-68.928-14.794667l-26.986666-11.84-56.938667 22.186667c-25.994667 5.92-50.954667 7.402667-74.933333 4.448h-0.032c-18.944 0-36.874667-5.386667-53.813334-16.202667a0.885333 0.885333 0 0 1-0.202666-0.170666c-22.901333-23.626667-23.850667-47.253333-2.901334-70.890667 8.992-11.84 25.973333-19.221333 50.954667-22.186667 26.976-3.925333 54.442667-3.445333 82.432 1.482667l61.44 16.266667 47.946667-36.970667H558.314667c-2.624 0-5.152 0.853333-7.285334 2.378667-13.12 9.376-33.024 20.405333-59.701333 33.12v-56.213334c12.970667-8.864 25.472-19.701333 37.461333-32.533333h53.909334z m260.8 208.533333v51.765333H696.64v94.645334h-85.973333a9.013333 9.013333 0 0 1-9.066667-8.949334l30.602667-57.6c0-18.72-11.989333-28.096-35.968-28.096H485.333333v-51.776h146.869334v-20.693333h62.933333v20.693333h148.373333zM781.493333 135.146667V263.253333h-0.192c0.053333 0.778667 0.192 1.472 0.192 2.282667v72.810667H562.485333V236.693333h182.762667c2.688 0 5.162667 0.16 7.552 0.394667v-55.008H562.485333V88.042667h182.762667c24.16 0 36.245333 10.613333 36.245333 31.850666v15.253334z m22.656-101.717334H545.877333c-52.864 0-49.845333 16.192-49.845333 48.544v274.538667a31.808 31.808 0 0 0 31.733333 31.882667h320.192V83.488c0.992-33.376-13.6-50.058667-43.808-50.058667z"  /></svg>